/* XPM */
static char *_16be92b81d5432fa9edcc037b4aaa1ag2CzF5WeJUj8VpNj[] = {
/* columns rows colors chars-per-pixel */
"32 32 11 1 ",
"  c #231D1F",
". c #332B2D",
"X c #3F3238",
"o c #4C3D40",
"O c #5D4C50",
"+ c #564549",
"@ c #3F363A",
"# c #463A3D",
"$ c #3D3236",
"% c #3A3033",
"& c white",
/* pixels */
"      .      .        .      .  ",
"XXX oXXXXoo X XXXXX oXXXXoo X XX",
"XoX OXXXoXX X XXXoX OXXXoXX X XX",
"X+X oXXXXXX X XXX+X oXXXXXX X XX",
"      .@     .        .@     .  ",
"XXoooXo@XXXXXXX XXoooXo@XXXXXXX ",
"XoXXXXX XXoXXXX XoXXXXX XXoXXXX ",
"XXXoXXo XXXXXXX XXXoXXo XXXXXXX ",
"    .. .            .. .        ",
"XXX         XXXXXXX         XXXX",
"XXX .+XOoXX XXXXXXX .+XOoXX XXXX",
"XXX..Xo#XXX.$XXoXXX..Xo#XXX.$XXo",
" .    @.  . .. . .    @.  . .. .",
"XXXooXX X$XoXXX.XXXooXX X$XoXXX.",
"XXXXoX$ X$X%$oX XXXXoX$ X$X%$oX ",
"ooXoXoo $o$X+XX@ooXoXoo $o$X+XX@",
"      .      .        .      .  ",
"XXX oXXXXoo X XXXXX oXXXXoo X XX",
"XoX OXXXoXX X XXXoX OXXXoXX X XX",
"X+X oXXXXXX X XXX+X oXXXXXX X XX",
"      .@     .        .@     .  ",
"XXoooXo@XXXXXXX XXoooXo@XXXXXXX ",
"XoXXXXX XXoXXXX XoXXXXX XXoXXXX ",
"XXXoXXo XXXXXXX XXXoXXo XXXXXXX ",
"    .. .            .. .        ",
"XXX         XXXXXXX         XXXX",
"XXX .+XOoXX XXXXXXX .+XOoXX XXXX",
"XXX..Xo#XXX.$XXoXXX..Xo#XXX.$XXo",
" .    @.  . .. . .    @.  . .. .",
"XXXooXX X$XoXXX.XXXooXX X$XoXXX.",
"XXXXoX$ X$X%$oX XXXXoX$ X$X%$oX ",
"ooXoXoo $o$X+XX@ooXoXoo $o$X+XX@"
};
