/* XPM */
static char * Pink 0_xpm[] = {
"32 32 6 1",
" 	c None",
".	c #04193F",
"+	c #F489F6",
"@	c #780BF7",
"#	c #D840FB",
"$	c #FCFEFE",
"                                ",
"                                ",
"                                ",
"                                ",
"          ..... ....            ",
"         .+++++.@@@@.           ",
"         .++++####@@@.          ",
"          .##++++###@@.         ",
"         .#+++++++###@.         ",
"         .+++++$$$$$$@@.        ",
"        .#++++$$$$$$$$@.        ",
"        .++++$$...$$$..@.       ",
"        .++++$..$$.$..$..       ",
"        .++++$..$$.$..$..       ",
"        .++++$..$$.$..$..       ",
"        .#++++$...$$$..@.       ",
"         .++++$$$$$$$$$.        ",
"         .+++++#$$$$$$@.        ",
"         .+++@++###@@..         ",
"         .+++@+$$$$@@.          ",
"         .++++@$$$$$@.          ",
"         .++++@$$$$$@.          ",
"        .@++++@$$$$@@.          ",
"       .+#@@@@$$$$@@.           ",
"      .+++#######@@@.           ",
"      .+++++++.@@@@@.           ",
"      .++++++..@@@@@.           ",
"       .++++. ......            ",
"        ....                    ",
"                                ",
"                                ",
"                                "};
