/* XPM */
static char * trans_white_cheese_piece_xpm[] = {
"32 32 16 1",
" 	c None",
".	c #000000",
"+	c #C97F24",
"@	c #FFCC7A",
"#	c #FFF7A0",
"$	c #7E5208",
"%	c #FFCC88",
"&	c #FFBE6A",
"*	c #FFD285",
"=	c #FFC877",
"-	c #FFE094",
";	c #FFE091",
">	c #FFEE9C",
",	c #FFFAC4",
"'	c #FFDE95",
")	c #FFC374",
"                                ",
"                                ",
"                                ",
"                                ",
"                                ",
"                                ",
"               ........         ",
"            ..+@######@$.       ",
"           .#%%%%%%%%%&@#$.     ",
"          .#%%&&%%%%%%&%*@+.    ",
"          $@%%&&%%%%%%&%%&@.    ",
"         .#=%%&&%%%%%%&%%&#.    ",
"         +@&%%&&%%%%%%&%*-#.    ",
"        .#=&%%&&%%%%%%*-;##.    ",
"        +@&&%%&&%%%*-####>#.    ",
"       .#=&&%%&&%*-#,,#>>'#.    ",
"       +@&&&%%=-##,,,,#'>'#.    ",
"      .#=&&&*-##>#,,,,#'>'#.    ",
"      .@=&)*##>''#,,,,#'#>#.    ",
"     .+@*#####'''#,,,,#>#&.     ",
"     .###>''##'''#,,,##&+.      ",
"     .#>''''##''>####&$.        ",
"     .#'''''##'>##&+..          ",
"     .#'''''###&+..             ",
"     .#>'>###&+.                ",
"     .####&+..                  ",
"     .&&+..                     ",
"      ..                        ",
"                                ",
"                                ",
"                                ",
"                                "};
