/* XPM */
static char * trans_door_xpm[] = {
"32 32 12 1",
" 	c None",
".	c #140A0F",
"+	c #867E77",
"@	c #706961",
"#	c #5A5550",
"$	c #272225",
"%	c #342E34",
"&	c #514952",
"*	c #433F45",
"=	c #65657A",
"-	c #4A4A5A",
";	c #565668",
"                                ",
"                                ",
"     .+++++++++++++++++++++.    ",
"     .+++++++++++++++++++++.    ",
"      .+@@@@@@@@@@@@@@@@@+.     ",
"      .#$%%%%%%%%%%%%%%%$#.     ",
"      .#$&&****&&&****&&$#.     ",
"      .#$&*$$$$*&*$$$$*&$#.     ",
"      .#$*$=-=-$*$-=-=$*$#.     ",
"      .+$*$;;;;$*$;;;;$*$+.     ",
"      .#$*$;;;;$*$;;;;$*$#.     ",
"      .#$*$;=;=$*$=;=;$*$#.     ",
"      .#$*$;=;=$*$=;=;$*$#.     ",
"      .#$&$;;;;$*$;;;;$&$#.     ",
"      .#$&*$$$$*&*$$$$*&$#.     ",
"      .#$&$=-=-$*$-=-=$&$#.     ",
"      .+$&$;;;;$*$;;;;$&$+.     ",
"      .#$&$;=;=$*$=;=;$&$#.     ",
"      .#$&$;=;=$*$=;=;$&$#.     ",
"      .#$*$;;;;$*$;;;;$*$#.     ",
"      .#$**$$$$*&*$$$$**$#.     ",
"      .+$*$=-=-$*$-=-=$*$+.     ",
"      .#$*$;;;;$*$;;;;$*$#.     ",
"      .#$*$;=;=$*$=;=;$*$#.     ",
"      .#$*$;=;=$*$=;=;$*$#.     ",
"      .#$*$;;;;$*$;;;;$*$#.     ",
"      .#$&*$$$$*&*$$$$*&$#.     ",
"      .@$&&****&&&****&&$@.     ",
"     .@$$$$$$$$$$$$$$$$$$$@.    ",
"     .##@@##@#@@@@@#@##@@##.    ",
"                                ",
"                                "};
